<?xml version="1.0" encoding="UTF-8" standalone="no"?>
<!DOCTYPE svg PUBLIC "-//W3C//DTD SVG 1.1//EN" "http://www.w3.org/Graphics/SVG/1.1/DTD/svg11.dtd">
<!-- Created with Vectornator (http://vectornator.io/) -->
<svg height="100%" stroke-miterlimit="10" style="fill-rule:nonzero;clip-rule:evenodd;stroke-linecap:round;stroke-linejoin:round;" version="1.1" viewBox="0 0 832 1024" width="100%" xml:space="preserve" xmlns="http://www.w3.org/2000/svg" xmlns:xlink="http://www.w3.org/1999/xlink">
<defs/>
<g id="Без-названия">
<path d="M64.4685 0L0 0L0 1024L832 1024L832 0L64.4685 0" fill="#d7773f" fill-rule="nonzero" opacity="1" stroke="none"/>
<path d="M753.65 974.3C748.783 969.433 742.9 967 736 967C729.133 967 723.25 969.433 718.35 974.3C713.45 979.2 711 985.1 711 992C711 998.867 713.45 1004.75 718.35 1009.65C723.25 1014.55 729.133 1017 736 1017C742.9 1017 748.783 1014.55 753.65 1009.65C758.55 1004.75 761 998.867 761 992C761 985.1 758.55 979.2 753.65 974.3M736 969C742.367 969 747.783 971.233 752.25 975.7C756.75 980.2 759 985.633 759 992C759 998.333 756.75 1003.75 752.25 1008.25C747.783 1012.75 742.367 1015 736 1015C729.667 1015 724.25 1012.75 719.75 1008.25C715.25 1003.75 713 998.333 713 992C713 985.633 715.25 980.2 719.75 975.7C724.25 971.233 729.667 969 736 969M736 988C734.9 988 733.95 988.383 733.15 989.15C732.383 989.95 732 990.9 732 992C732 993.133 732.383 994.083 733.15 994.85C733.95 995.617 734.9 996 736 996C737.1 996 738.05 995.617 738.85 994.85C739.617 994.083 740 993.133 740 992C740 990.9 739.617 989.95 738.85 989.15C738.05 988.383 737.1 988 736 988M672 967C665.133 967 659.25 969.433 654.35 974.3C649.45 979.2 647 985.1 647 992C647 998.867 649.45 1004.75 654.35 1009.65C659.25 1014.55 665.133 1017 672 1017C678.9 1017 684.783 1014.55 689.65 1009.65C694.55 1004.75 697 998.867 697 992C697 985.1 694.55 979.2 689.65 974.3C684.783 969.433 678.9 967 672 967M655.75 975.7C660.25 971.233 665.667 969 672 969C678.367 969 683.783 971.233 688.25 975.7C692.75 980.2 695 985.633 695 992C695 998.333 692.75 1003.75 688.25 1008.25C683.783 1012.75 678.367 1015 672 1015C665.667 1015 660.25 1012.75 655.75 1008.25C651.25 1003.75 649 998.333 649 992C649 985.633 651.25 980.2 655.75 975.7M714 906L712 906L712 950L714 950L714 906M822 952L822 950L778 950L778 952L822 952M824 969.35L822.65 968L800 990.6L777.35 968L776 969.35L798.65 992L776 1014.6L777.35 1016L800 993.35L822.65 1016L824 1014.6L801.35 992L824 969.35M822 842L822 840L778 840L778 842L822 842M102.15 972.3L86 972.3L86 979.9L93.6 979.9L93.6 1012.15L102.15 1012.15L102.15 972.3M120 906L118 906L118 950L120 950L120 906M31.65 971.4C26.1167 971.4 21.9833 973.267 19.25 977C16.5167 980.733 15.15 985.733 15.15 992C15.15 998.267 16.5167 1003.27 19.25 1007C21.9833 1010.73 26.1167 1012.6 31.65 1012.6C37.15 1012.6 41.2667 1010.73 44 1007C46.7333 1003.27 48.1 998.267 48.1 992C48.1 985.733 46.7333 980.733 44 977C41.2667 973.267 37.15 971.4 31.65 971.4M31.65 978.75C34.2833 978.75 36.2333 979.967 37.5 982.4C38.7333 984.833 39.35 988.05 39.35 992.05C39.35 996.017 38.7333 999.217 37.5 1001.65C36.2333 1004.08 34.2833 1005.3 31.65 1005.3C28.95 1005.3 26.9833 1004.08 25.75 1001.65C24.4833 999.217 23.85 996.017 23.85 992.05C23.85 988.05 24.4833 984.833 25.75 982.4C26.9833 979.967 28.95 978.75 31.65 978.75M48 832L32 832L32 896L40 896L40 960L56 960L56 896L48 896L48 832M16 832L0 832L0 896L8 896L8 960L24 960L24 896L16 896L16 832M296.55 988L288 988L288 994.95L282.35 994.95L295.9 972.3L286.2 972.3L272 995.85L272 1002.65L288 1002.65L288 1012.15L296.55 1012.15L296.55 1002.65L301.05 1002.65L301.05 994.95L296.55 994.95L296.55 988M236.75 972.3L212.4 972.3L212.4 979.9L224.85 979.9L217.25 988.9L217.25 995.45C219.517 994.717 221.267 994.35 222.5 994.35C224.867 994.35 226.717 994.833 228.05 995.8C229.383 996.767 230.05 998.083 230.05 999.75C230.05 1001.42 229.467 1002.68 228.3 1003.55C227.167 1004.42 225.7 1004.85 223.9 1004.85C220.933 1004.85 217.567 1003.53 213.8 1000.9L210.15 1007.9C214.65 1011.03 219.117 1012.6 223.55 1012.6C227.95 1012.6 231.567 1011.42 234.4 1009.05C237.233 1006.65 238.65 1003.37 238.65 999.2C238.65 996.4 237.783 993.933 236.05 991.8C234.283 989.633 231.8 988.283 228.6 987.75L236.75 978.45L236.75 972.3M164.45 983.7C164.45 985.033 163.95 986.417 162.95 987.85C161.95 989.25 160.267 991.15 157.9 993.55L146.2 1005.55L146.2 1012.15L174.3 1012.15L174.3 1004.15L158.55 1004.15L165.75 996.7C168.583 993.767 170.517 991.367 171.55 989.5C172.583 987.633 173.1 985.667 173.1 983.6C173.1 979.833 171.8 976.85 169.2 974.65C166.6 972.483 163.583 971.4 160.15 971.4C156.717 971.4 153.883 972.15 151.65 973.65C149.45 975.117 147.4 977.283 145.5 980.15L152.65 984.4C154.883 980.833 157.25 979.05 159.75 979.05C161.15 979.05 162.283 979.483 163.15 980.35C164.017 981.25 164.45 982.367 164.45 983.7M256 886.7L256 884.7C245.833 885.533 235.5 885.967 225 886L225 832L223 832L223 886C212.5 885.967 202.167 885.533 192 884.7L192 886.7C202.167 887.533 212.5 887.967 223 888L223 896L225 896L225 888C235.5 887.967 245.833 887.533 256 886.7M418.2 979.05C419.4 979.05 420.65 979.35 421.95 979.95C423.25 980.55 424.1 981.033 424.5 981.4C424.967 981.8 425.317 982.117 425.55 982.35L429.75 976.1C428.65 975.2 427.633 974.467 426.7 973.9C425.8 973.333 424.517 972.767 422.85 972.2C421.15 971.667 419.367 971.4 417.5 971.4C413 971.4 409.233 973 406.2 976.2C404.633 977.8 403.417 979.967 402.55 982.7C401.65 985.467 401.2 988.667 401.2 992.3C401.2 997.967 402.333 1002.68 404.6 1006.45C405.733 1008.38 407.35 1009.9 409.45 1011C411.517 1012.07 413.95 1012.6 416.75 1012.6C420.817 1012.6 424.183 1011.38 426.85 1008.95C429.55 1006.52 430.9 1003.28 430.9 999.25C430.9 995.183 429.65 991.933 427.15 989.5C424.65 987.1 421.55 985.9 417.85 985.9C415.05 985.9 412.417 986.683 409.95 988.25C410.25 985.417 411.083 983.167 412.45 981.5C413.817 979.867 415.733 979.05 418.2 979.05M417 993.4C418.767 993.4 420.167 993.983 421.2 995.15C422.233 996.283 422.75 997.7 422.75 999.4C422.75 1001.1 422.167 1002.48 421 1003.55C419.867 1004.62 418.45 1005.15 416.75 1005.15C415.05 1005.15 413.617 1004.55 412.45 1003.35C411.317 1002.15 410.75 1000.72 410.75 999.05C410.75 997.383 411.35 996.033 412.55 995C413.75 993.933 415.233 993.4 417 993.4M363.9 972.3L339.85 972.3L339.85 991.75L343.55 995.75C346.217 994.283 348.55 993.55 350.55 993.55C352.583 993.55 354.233 994.05 355.5 995.05C356.767 996.017 357.4 997.383 357.4 999.15C357.4 1000.92 356.8 1002.27 355.6 1003.2C354.433 1004.13 353.1 1004.6 351.6 1004.6C350.067 1004.6 348.533 1004.18 347 1003.35C345.5 1002.55 344.45 1001.9 343.85 1001.4C343.317 1000.9 342.867 1000.48 342.5 1000.15L337.85 1006.6C341.45 1010.6 345.95 1012.6 351.35 1012.6C355.583 1012.6 359.133 1011.32 362 1008.75C364.867 1006.18 366.3 1002.93 366.3 999C366.3 995.067 364.917 991.95 362.15 989.65C359.35 987.317 356.033 986.15 352.2 986.15C350.7 986.15 349.35 986.333 348.15 986.7L348.15 980L363.9 980L363.9 972.3M417 832L415 832L415 854C404.267 853.933 393.933 852.883 384 850.85L384 852.9C393.933 854.9 404.267 855.933 415 856L415 896L417 896L417 856C427.733 855.933 438.067 854.9 448 852.9L448 850.85C438.067 852.883 427.733 853.933 417 854L417 832M597 975.1C594.333 977.533 593 980.767 593 984.8C593 988.833 594.233 992.067 596.7 994.5C599.2 996.967 602.3 998.2 606 998.2C608.833 998.2 611.467 997.383 613.9 995.75C613.6 998.583 612.767 1000.83 611.4 1002.5C610.033 1004.13 608.117 1004.95 605.65 1004.95C604.583 1004.95 603.417 1004.65 602.15 1004.05C600.883 1003.45 600.033 1002.97 599.6 1002.6C599.167 1002.23 598.817 1001.93 598.55 1001.7L594.1 1008C595.233 1008.87 596.25 1009.57 597.15 1010.1C598.017 1010.67 599.3 1011.23 601 1011.8C602.7 1012.33 604.483 1012.6 606.35 1012.6C610.783 1012.6 614.567 1011 617.7 1007.8C619.233 1006.2 620.433 1004.03 621.3 1001.3C622.2 998.533 622.65 995.333 622.65 991.7C622.65 986.033 621.533 981.317 619.3 977.55C618.133 975.617 616.517 974.1 614.45 973C612.35 971.933 609.9 971.4 607.1 971.4C603.033 971.4 599.667 972.633 597 975.1M602.9 980.5C604 979.4 605.4 978.85 607.1 978.85C608.833 978.85 610.267 979.467 611.4 980.7C612.5 981.9 613.05 983.333 613.05 985C613.05 986.667 612.467 988.033 611.3 989.1C610.133 990.1 608.667 990.6 606.9 990.6C605.133 990.6 603.75 990.017 602.75 988.85C601.783 987.717 601.3 986.3 601.3 984.6C601.3 982.933 601.833 981.567 602.9 980.5M534.1 974.5C531.467 976.6 530.15 979.183 530.15 982.25C530.15 985.283 531.35 987.917 533.75 990.15C530.45 992.717 528.8 996.067 528.8 1000.2C528.8 1003.67 530.2 1006.6 533 1009C535.8 1011.4 539.467 1012.6 544 1012.6C548.533 1012.6 552.2 1011.4 555 1009C557.8 1006.6 559.2 1003.67 559.2 1000.2C559.2 996.067 557.55 992.717 554.25 990.15C556.617 987.95 557.8 985.317 557.8 982.25C557.8 979.183 556.483 976.6 553.85 974.5C551.217 972.433 547.933 971.4 544 971.4C540.033 971.4 536.733 972.433 534.1 974.5M540.2 986.45C539.133 985.517 538.6 984.383 538.6 983.05C538.6 981.717 539.117 980.583 540.15 979.65C541.25 978.75 542.533 978.3 544 978.3C545.467 978.3 546.75 978.75 547.85 979.65C548.883 980.583 549.4 981.717 549.4 983.05C549.4 984.383 548.867 985.517 547.8 986.45C546.7 987.35 545.433 987.8 544 987.8C542.567 987.8 541.3 987.35 540.2 986.45M548.4 996C549.7 996.933 550.35 998.25 550.35 999.95C550.35 1001.65 549.683 1002.95 548.35 1003.85C546.983 1004.75 545.533 1005.2 544 1005.2C542.433 1005.2 540.983 1004.75 539.65 1003.85C538.317 1002.95 537.65 1001.65 537.65 999.95C537.65 998.25 538.3 996.933 539.6 996C540.9 995.1 542.367 994.65 544 994.65C545.633 994.65 547.1 995.1 548.4 996M494.55 979.05L494.55 972.3L465.7 972.3L465.7 985.05L474.05 985.05L474.05 979.95L484.1 979.95L468.7 1012.15L478.4 1012.15L494.55 979.05M512 822L488 821.95C485.333 821.983 482.667 822 480 822C469.167 822 458.5 821.55 448 820.65C437.5 821.55 426.833 822 416 822C405.167 822 394.5 821.55 384 820.65C373.5 821.55 362.833 822 352 822L320 822L320 824L352 824C362.833 824 373.5 823.55 384 822.65C394.5 823.55 405.167 824 416 824C426.833 824 437.5 823.55 448 822.65C458.5 823.55 469.167 824 480 824C482.667 824 485.333 823.983 488 823.95L512 824L512 822M576 886.7C586.167 887.533 596.5 887.967 607 888L607 896L609 896L609 888C619.5 887.967 629.833 887.533 640 886.7L640 884.7C629.833 885.533 619.5 885.967 609 886L609 832L607 832L607 886C596.5 885.967 586.167 885.533 576 884.7L576 886.7M640 822L640 824L669 824L669 829L675 829L675 824L704 824L704 822L675 822L675 805L669 805L669 822L640 822M605 776L576 776L576 778L605 778L605 795L611 795L611 778L640 778L640 776L611 776L611 771L605 771L605 776M630 640L630 641C630 655.633 624.817 668.117 614.45 678.45C604.117 688.817 591.633 694 577 694L576 694L576 696L577 696C592.167 696 605.117 690.617 615.85 679.85C626.617 669.117 632 656.167 632 641L632 640L630 640M576 520L576 522L577 522C591.633 522 604.117 527.183 614.45 537.55C624.817 547.883 630 560.367 630 575L630 576L632 576L632 575C632 559.833 626.617 546.883 615.85 536.15C605.117 525.383 592.167 520 577 520L576 520M248 768L246 768L246 797L229 797L229 803L246 803L246 832L248 832L248 803L253 803L253 797L248 797L248 768M266 768L264 768C264 791.233 268.533 812.567 277.6 832C284.933 847.733 295.233 862.233 308.5 875.5C312.233 879.233 316.067 882.733 320 886C324.367 889.633 328.85 892.967 333.45 896C348.95 906.233 365.8 913.2 384 916.9C394.233 918.967 404.9 920 416 920C427.1 920 437.767 918.967 448 916.9C466.167 913.2 483 906.233 498.5 896C503.1 892.933 507.6 889.583 512 885.95C515.9 882.683 519.717 879.2 523.45 875.5C536.717 862.233 547.033 847.733 554.4 832C563.467 812.567 568 791.233 568 768L566 768C566 791.267 561.4 812.6 552.2 832C544.967 847.2 534.917 861.233 522.05 874.1C518.783 877.367 515.433 880.467 512 883.4C506.467 888.067 500.75 892.267 494.85 896C480.383 905.1 464.767 911.383 448 914.85C437.767 916.95 427.1 918 416 918C404.9 918 394.233 916.95 384 914.85C367.2 911.383 351.583 905.1 337.15 896C331.217 892.267 325.5 888.067 320 883.4C316.567 880.5 313.2 877.4 309.9 874.1C297.033 861.233 287 847.2 279.8 832C270.6 812.6 266 791.267 266 768M202 640L200 640L200 641C200 656.167 205.383 669.117 216.15 679.85C226.883 690.617 239.833 696 255 696L256 696L256 694L255 694C240.367 694 227.883 688.817 217.55 678.45C207.183 668.117 202 655.633 202 641L202 640M138 768L136 768L136 797L131 797L131 803L136 803L136 832L138 832L138 803L155 803L155 797L138 797L138 768M74 736C74 725.167 74.45 714.5 75.35 704L73.35 704C72.45 714.5 72 725.167 72 736L72 768L74 768L74 736M72 448L72.05 472C72.0167 474.667 72 477.333 72 480C72 490.833 72.45 501.5 73.35 512L75.35 512C74.45 501.5 74 490.833 74 480C74 477.333 74.0167 474.667 74.05 472L74 448L72 448M308.55 500.5C304.817 504.233 301.317 508.067 298.05 512C282.217 531.033 271.917 552.367 267.15 576C265.05 586.233 264 596.9 264 608C264 619.1 265.05 629.767 267.15 640C271.917 663.6 282.233 684.933 298.1 704C301.333 707.9 304.817 711.717 308.55 715.45C312.283 719.183 316.1 722.683 320 725.95C339.033 741.783 360.367 752.1 384 756.9C394.233 758.967 404.9 760 416 760C427.1 760 437.767 758.967 448 756.9C471.633 752.1 492.967 741.783 512 725.95C515.933 722.683 519.767 719.183 523.5 715.45C525.2 713.75 526.85 712.033 528.45 710.3C530.05 708.533 531.617 706.767 533.15 705C533.417 704.667 533.683 704.333 533.95 704C549.783 684.933 560.1 663.6 564.9 640C566.967 629.767 568 619.1 568 608C568 596.9 566.967 586.233 564.9 576C560.1 552.367 549.8 531.033 534 512C530.733 508.067 527.233 504.233 523.5 500.5C519.767 496.767 515.933 493.267 512 490C492.967 474.2 471.633 463.9 448 459.1C437.767 457.033 427.1 456 416 456C404.9 456 394.233 457.033 384 459.1C360.367 463.9 339.033 474.217 320 490.05C316.1 493.283 312.283 496.767 308.55 500.5M300.65 512C303.55 508.567 306.65 505.2 309.95 501.9C313.217 498.633 316.567 495.55 320 492.65C339 476.517 360.333 466.017 384 461.15C394.233 459.05 404.9 458 416 458C427.1 458 437.767 459.05 448 461.15C471.667 466.017 493 476.5 512 492.6C515.433 495.5 518.8 498.6 522.1 501.9C525.4 505.2 528.5 508.567 531.4 512C547.5 531 557.983 552.333 562.85 576C564.95 586.233 566 596.9 566 608C566 619.1 564.95 629.767 562.85 640C557.983 663.667 547.5 685 531.4 704C531.1 704.333 530.817 704.667 530.55 705C529.85 705.8 529.15 706.6 528.45 707.4C526.417 709.633 524.3 711.85 522.1 714.05C518.8 717.35 515.433 720.467 512 723.4C493 739.5 471.667 749.983 448 754.85C437.767 756.95 427.1 758 416 758C404.9 758 394.233 756.95 384 754.85C360.333 749.983 339 739.483 320 723.35C316.567 720.417 313.217 717.317 309.95 714.05C306.683 710.783 303.6 707.433 300.7 704C284.533 685 274.017 663.667 269.15 640C267.05 629.767 266 619.1 266 608C266 596.9 267.05 586.233 269.15 576C274.017 552.333 284.517 531 300.65 512M477 694L448 694L448 696L504 696L504 640L502 640L502 669C495.1 669 489.217 671.433 484.35 676.3C479.45 681.2 477 687.1 477 694M330 640L328 640L328 696L384 696L384 694L355 694C355 687.1 352.55 681.2 347.65 676.3C342.783 671.433 336.9 669 330 669L330 640M384 522L384 520L328 520L328 576L330 576L330 547C336.9 547 342.783 544.567 347.65 539.7C352.55 534.8 355 528.9 355 522L384 522M502 547L502 576L504 576L504 520L448 520L448 522L477 522C477 528.9 479.45 534.8 484.35 539.7C489.217 544.567 495.1 547 502 547M320 607L320 609L328 609C328.067 619.733 329.117 630.067 331.15 640L333.15 640C331.117 630.067 330.067 619.733 330 609L415 609L415 694C404.267 693.933 393.933 692.883 384 690.85L384 692.9C393.933 694.9 404.267 695.933 415 696L415 704L417 704L417 696C427.733 695.933 438.067 694.9 448 692.9L448 690.85C438.067 692.883 427.733 693.933 417 694L417 609L502 609C501.933 619.733 500.883 630.067 498.85 640L500.9 640C502.9 630.067 503.933 619.733 504 609L512 609L512 607L504 607C503.933 596.267 502.9 585.933 500.9 576L498.85 576C500.883 585.933 501.933 596.267 502 607L417 607L417 522C427.733 522.067 438.067 523.117 448 525.15L448 523.1C438.067 521.1 427.733 520.067 417 520L417 512L415 512L415 520C404.267 520.067 393.933 521.1 384 523.1L384 525.15C393.933 523.117 404.267 522.067 415 522L415 607L330 607C330.067 596.267 331.117 585.933 333.15 576L331.15 576C329.117 585.933 328.067 596.267 328 607L320 607M237.15 576L235.1 576C233.1 585.933 232.067 596.267 232 607L138 607C138.033 596.5 138.467 586.167 139.3 576L137.3 576C136.467 586.167 136.033 596.5 136 607L128 607L128 609L136 609C136.033 619.5 136.467 629.833 137.3 640L139.3 640C138.467 629.833 138.033 619.5 138 609L232 609C232.067 619.733 233.1 630.067 235.1 640L237.15 640C235.117 630.067 234.067 619.733 234 609L256 609L256 607L234 607C234.067 596.267 235.117 585.933 237.15 576M202 576L202 575C202 560.367 207.183 547.883 217.55 537.55C227.883 527.183 240.367 522 255 522L256 522L256 520L255 520C239.833 520 226.883 525.383 216.15 536.15C205.383 546.883 200 559.833 200 575L200 576L202 576M256 458L256 456C232.767 456 211.433 460.533 192 469.6C176.267 476.933 161.767 487.233 148.5 500.5C144.767 504.233 141.267 508.067 138 512C134.367 516.367 131.033 520.85 128 525.45C117.767 540.95 110.8 557.8 107.1 576C105.033 586.233 104 596.9 104 608C104 619.1 105.033 629.767 107.1 640C110.8 658.167 117.767 675 128 690.5C131.067 695.1 134.417 699.6 138.05 704C141.317 707.9 144.8 711.717 148.5 715.45C161.767 728.717 176.267 739.033 192 746.4C211.433 755.467 232.767 760 256 760L256 758C232.733 758 211.4 753.4 192 744.2C176.8 736.967 162.767 726.917 149.9 714.05C146.633 710.783 143.533 707.433 140.6 704C135.933 698.467 131.733 692.75 128 686.85C118.9 672.383 112.617 656.767 109.15 640C107.05 629.767 106 619.1 106 608C106 596.9 107.05 586.233 109.15 576C112.617 559.2 118.9 543.583 128 529.15C131.733 523.217 135.933 517.5 140.6 512C143.5 508.567 146.6 505.2 149.9 501.9C162.767 489.033 176.8 479 192 471.8C211.4 462.6 232.733 458 256 458M72 8L72 248L312 248L312 8L72 8M223 128L225 128L225 10L310 10L310 159L163.9 159C163.733 158.3 163.383 157.683 162.85 157.15C162.05 156.383 161.1 156 160 156C158.9 156 157.95 156.383 157.15 157.15C156.617 157.683 156.267 158.3 156.1 159L74 159L74 72.8726M162.85 162.85C163.383 162.317 163.733 161.7 163.9 161L310 161L310 246L225 246L225 192L223 192L223 246L74 246L74 161L156.1 161C156.267 161.7 156.617 162.317 157.15 162.85C157.95 163.617 158.9 164 160 164C161.1 164 162.05 163.617 162.85 162.85M162.85 98.85C163.25 98.4167 163.55 97.95 163.75 97.45C163.917 96.9833 164 96.5 164 96C164 95.7 163.967 95.4 163.9 95.1C163.733 94.3667 163.383 93.7167 162.85 93.15C162.317 92.6167 161.7 92.2667 161 92.1L161 64L159 64L159 92.1C158.3 92.2667 157.683 92.6167 157.15 93.15C156.617 93.7167 156.267 94.3667 156.1 95.1C156.033 95.4 156 95.7 156 96C156 96.5 156.083 96.9833 156.25 97.45C156.45 97.95 156.75 98.4167 157.15 98.85C157.683 99.3833 158.3 99.7333 159 99.9L159 128L161 128L161 99.9C161.7 99.7333 162.317 99.3833 162.85 98.85M235 425L235 407L225 416L235 425M223 320L223 328C212.5 328.033 202.167 328.467 192 329.3L192 331.3C202.167 330.467 212.5 330.033 223 330L223 448L225 448L225 416L225 330C235.5 330.033 245.833 330.467 256 331.3L256 329.3C245.833 328.467 235.5 328.033 225 328L225 320L223 320M149 407L149 425L159 416L149 407M161 384L159 384L159 416L159 448L161 448L161 384M108.8 364.8C102.533 371.067 96.5333 377.467 90.8 384C81 395.233 72.0667 406.85 64 418.85C57.6 428.317 51.7333 438.033 46.4 448C35.5333 468.367 26.9833 489.7 20.75 512C14.9833 532.533 11.1667 553.867 9.3 576C8.43333 586.5 8 597.167 8 608C8 618.833 8.43333 629.5 9.3 640C11.1667 662.133 14.9833 683.467 20.75 704C26.9833 726.3 35.5333 747.633 46.4 768C51.7333 777.967 57.6 787.683 64 797.15C72.0667 809.15 81 820.767 90.8 832C96.5333 838.533 102.533 844.933 108.8 851.2C115.067 857.467 121.467 863.45 128 869.15C139.233 878.983 150.833 887.933 162.8 896C172.3 902.4 182.033 908.25 192 913.55C212.367 924.417 233.7 932.983 256 939.25C276.533 945.017 297.867 948.817 320 950.65L320 948.65C297.867 946.817 276.533 942.983 256 937.15C233.7 930.85 212.367 922.233 192 911.3C183.3 906.633 174.767 901.533 166.4 896C153.167 887.233 140.367 877.4 128 866.5C121.967 861.2 116.033 855.633 110.2 849.8C104.367 843.967 98.7833 838.033 93.45 832C82.5833 819.633 72.7667 806.833 64 793.6C58.4667 785.233 53.35 776.7 48.65 768C37.7167 747.633 29.1 726.3 22.8 704C17 683.467 13.1667 662.133 11.3 640C10.4333 629.5 10 618.833 10 608C10 597.167 10.4333 586.5 11.3 576C13.1667 553.867 17 532.533 22.8 512C29.1 489.7 37.7167 468.367 48.65 448C53.35 439.3 58.4667 430.767 64 422.4C72.7667 409.167 82.5833 396.367 93.45 384C98.7833 377.967 104.367 372.033 110.2 366.2C116.033 360.367 121.967 354.8 128 349.5C140.367 338.6 153.167 328.767 166.4 320C174.767 314.467 183.3 309.367 192 304.7C212.367 293.767 233.7 285.15 256 278.85C276.533 273.017 297.867 269.183 320 267.35L320 265.35C297.867 267.183 276.533 270.983 256 276.75C233.7 283.017 212.367 291.583 192 302.45C182.033 307.75 172.3 313.6 162.8 320C150.833 328.067 139.233 337.017 128 346.85C121.467 352.55 115.067 358.533 108.8 364.8M56 376L64 376L64 374L54 374L54 384L56 384L56 376M0 376L8 376L8 384L10 384L10 374L0 374L0 376M8 320L8 328L0 328L0 330L10 330L10 320L8 320M64 328L56 328L56 320L54 320L54 330L64 330L64 328M26.4 218.25L26.4 218.3C26.3333 218.3 26.3 218.333 26.3 218.4L26.25 218.4C24.75 219.967 24 221.833 24 224C24 226.267 24.7667 228.167 26.3 229.7C26.3667 229.733 26.45 229.783 26.55 229.85L26.55 229.9C28.0833 231.3 29.9 232 32 232C34.0667 232 35.8833 231.333 37.45 230C37.45 229.967 37.4667 229.933 37.5 229.9C37.5667 229.833 37.6333 229.767 37.7 229.7C39.2333 228.167 40 226.267 40 224C40 221.833 39.25 219.967 37.75 218.4C37.7167 218.333 37.6833 218.3 37.65 218.3L37.6 218.25C36.0333 216.75 34.1667 216 32 216C29.8333 216 27.9667 216.75 26.4 218.25M27.7 219.8C27.7333 219.767 27.7667 219.733 27.8 219.7C28.9667 218.567 30.3667 218 32 218C33.6333 218 35.05 218.567 36.25 219.7C36.25 219.733 36.2667 219.767 36.3 219.8C37.4333 220.967 38 222.367 38 224C38 225.7 37.4333 227.133 36.3 228.3L36.25 228.3C35.05 229.433 33.6333 230 32 230C30.3667 230 28.9667 229.433 27.8 228.3L27.75 228.3C26.5833 227.133 26 225.7 26 224C26 222.367 26.5667 220.967 27.7 219.8M34.85 221.15C34.05 220.383 33.1 220 32 220C30.9 220 29.95 220.383 29.15 221.15C28.3833 221.95 28 222.9 28 224C28 225.133 28.3833 226.083 29.15 226.85C29.95 227.617 30.9 228 32 228C33.1 228 34.05 227.617 34.85 226.85C35.6167 226.083 36 225.133 36 224C36 222.9 35.6167 221.95 34.85 221.15M97 256L95 256L95 287C93.2667 287.2 33.7841 287.133 33.0841 287L33 256L31 256L31 320L33 320L33 289C33.7 288.833 93.3333 288.8 95 289L95 320L97 320L97 256M36.25 155.7C35.05 154.567 33.6333 154 32 154C30.3667 154 28.9667 154.567 27.8 155.7C27.7667 155.733 27.7333 155.767 27.7 155.8C26.5667 156.967 26 158.367 26 160C26 161.7 26.5833 163.133 27.75 164.3L27.8 164.3C28.9667 165.433 30.3667 166 32 166C33.6333 166 35.05 165.433 36.25 164.3L36.3 164.3C37.4333 163.133 38 161.7 38 160C38 158.367 37.4333 156.967 36.3 155.8C36.2667 155.767 36.25 155.733 36.25 155.7M34.85 157.15C35.6167 157.95 36 158.9 36 160C36 161.133 35.6167 162.083 34.85 162.85C34.05 163.617 33.1 164 32 164C30.9 164 29.95 163.617 29.15 162.85C28.3833 162.083 28 161.133 28 160C28 158.9 28.3833 157.95 29.15 157.15C29.95 156.383 30.9 156 32 156C33.1 156 34.05 156.383 34.85 157.15M34.85 98.85C35.6167 98.0833 36 97.1333 36 96C36 94.9 35.6167 93.95 34.85 93.15C34.05 92.3833 33.1 92 32 92C30.9 92 29.95 92.3833 29.15 93.15C28.3833 93.95 28 94.9 28 96C28 97.1333 28.3833 98.0833 29.15 98.85C29.95 99.6167 30.9 100 32 100C33.1 100 34.05 99.6167 34.85 98.85M609 328L609 320L607 320L607 328C596.5 328.033 586.167 328.467 576 329.3L576 331.3C586.167 330.467 596.5 330.033 607 330L607 384L609 384L609 330C619.5 330.033 629.833 330.467 640 331.3L640 329.3C629.833 328.467 619.5 328.033 609 328M337.15 320C351.617 310.9 367.233 304.617 384 301.15C394.233 299.05 404.9 298 416 298C427.1 298 437.767 299.05 448 301.15C464.8 304.617 480.417 310.9 494.85 320C500.783 323.733 506.5 327.933 512 332.6C515.433 335.5 518.8 338.6 522.1 341.9C534.967 354.767 545 368.8 552.2 384C561.4 403.4 566 424.733 566 448L568 448C568 424.767 563.467 403.433 554.4 384C547.067 368.267 536.767 353.767 523.5 340.5C519.767 336.767 515.933 333.267 512 330C507.633 326.367 503.15 323.033 498.55 320C483.05 309.767 466.2 302.8 448 299.1C437.767 297.033 427.1 296 416 296C404.9 296 394.233 297.033 384 299.1C365.833 302.8 349 309.767 333.5 320C328.9 323.067 324.4 326.417 320 330.05C316.1 333.317 312.283 336.8 308.55 340.5C295.283 353.767 284.967 368.267 277.6 384C268.533 403.433 264 424.767 264 448L266 448C266 424.733 270.6 403.4 279.8 384C287.033 368.8 297.083 354.767 309.95 341.9C313.217 338.633 316.567 335.533 320 332.6C325.533 327.933 331.25 323.733 337.15 320M384 393.35C373.5 392.45 362.833 392 352 392L320 392L320 394L352 394C362.833 394 373.5 394.45 384 395.35C394.5 394.45 405.167 394 416 394C426.833 394 437.5 394.45 448 395.35C458.5 394.45 469.167 394 480 394C482.667 394 485.333 394.017 488 394.05L512 394L512 392L488 392.05C485.333 392.017 482.667 392 480 392C469.167 392 458.5 392.45 448 393.35C437.5 392.45 426.833 392 416 392C405.167 392 394.5 392.45 384 393.35M384 363.1L384 365.15C393.933 363.117 404.267 362.067 415 362L415 384L417 384L417 362C427.733 362.067 438.067 363.117 448 365.15L448 363.1C438.067 361.1 427.733 360.067 417 360L417 320L415 320L415 360C404.267 360.067 393.933 361.1 384 363.1M440 136L328 136L328 248L440 248L440 136M381 138L387 138C387 152.067 391.983 164.083 401.95 174.05C411.917 184.017 423.933 189 438 189L438 195C423.933 195 411.917 199.983 401.95 209.95C391.983 219.917 387 231.933 387 246L381 246C381 231.933 376.017 219.917 366.05 209.95C356.083 199.983 344.067 195 330 195L330 189C344.067 189 356.083 184.017 366.05 174.05C376.017 164.083 381 152.067 381 138M330 187L330 138L379 138C379 151.533 374.217 163.083 364.65 172.65C355.083 182.217 343.533 187 330 187M403.35 172.65C393.783 163.083 389 151.533 389 138L438 138L438 187C424.467 187 412.917 182.217 403.35 172.65M364.65 211.35C374.217 220.917 379 232.467 379 246L330 246L330 197C343.533 197 355.083 201.783 364.65 211.35M389 246C389 232.467 393.783 220.917 403.35 211.35C412.917 201.783 424.467 197 438 197L438 246L389 246M440 8L328 8L328 120L440 120L440 8M438 10L438 33C431.633 33 426.217 30.7667 421.75 26.3C417.25 21.8 415 16.3667 415 10L438 10M413 10C413 16.9 415.45 22.8 420.35 27.7C425.217 32.5667 431.1 35 438 35L438 93C431.1 93 425.217 95.4333 420.35 100.3C415.45 105.2 413 111.1 413 118L355 118C355 111.1 352.55 105.2 347.65 100.3C342.783 95.4333 336.9 93 330 93L330 35C336.9 35 342.783 32.5667 347.65 27.7C352.55 22.8 355 16.9 355 10L413 10M330 33L330 10L353 10C353 16.3667 350.75 21.8 346.25 26.3C341.783 30.7667 336.367 33 330 33M353 118L330 118L330 95C336.367 95 341.783 97.2333 346.25 101.7C350.75 106.2 353 111.633 353 118M438 118L415 118C415 111.633 417.25 106.2 421.75 101.7C426.217 97.2333 431.633 95 438 95L438 118M481 192L479 192L479 200C467.9 200.1 457.567 202.017 448 205.75L448 207.9C457.567 204.067 467.9 202.1 479 202L479 256L481 256L481 202C492.1 202.1 502.433 204.067 512 207.9L512 205.75C502.433 202.017 492.1 200.1 481 200L481 192M609 192L607 192L607 246C595.9 245.9 585.567 243.95 576 240.15L576 242.25C585.567 245.983 595.9 247.9 607 248L607 256L609 256L609 248C620.1 247.9 630.433 246 640 242.3L640 240.15C630.433 243.95 620.1 245.9 609 246L609 192M562.3 192L560.15 192C563.95 201.567 565.9 211.9 566 223L512 223L512 225L566 225C565.9 236.1 563.95 246.433 560.15 256L562.3 256C566 246.433 567.9 236.1 568 225L576 225L576 223L568 223C567.9 211.9 566 201.567 562.3 192M606.25 33.75C597.15 24.6833 587.067 18.0167 576 13.75C566.133 9.91667 555.467 8 544 8C532.533 8 521.867 9.91667 512 13.75C500.933 18.0167 490.867 24.6833 481.8 33.75C472.7 42.85 466.017 52.9333 461.75 64C457.917 73.8667 456 84.5333 456 96C456 107.467 457.917 118.133 461.75 128C466.05 139.067 472.733 149.133 481.8 158.2C490.867 167.3 500.933 173.983 512 178.25C521.867 182.083 532.533 184 544 184C555.467 184 566.133 182.1 576 178.3C579.2 177.067 582.333 175.617 585.4 173.95C592.833 169.917 599.783 164.667 606.25 158.2C615.317 149.133 622 139.067 626.3 128C630.1 118.133 632 107.467 632 96C632 84.5333 630.1 73.8667 626.3 64C622 52.9333 615.317 42.85 606.25 33.75M576 15.9C586.533 20.0667 596.15 26.4833 604.85 35.15C613.517 43.85 619.95 53.4667 624.15 64C628.05 73.8667 630 84.5333 630 96C630 107.467 628.05 118.133 624.15 128C619.95 138.533 613.517 148.133 604.85 156.8C597.55 164.1 589.6 169.817 581 173.95C579.367 174.75 577.7 175.483 576 176.15C566.133 180.05 555.467 182 544 182C532.533 182 521.867 180.05 512 176.15C501.467 171.917 491.867 165.467 483.2 156.8C474.533 148.133 468.1 138.533 463.9 128C459.967 118.133 458 107.467 458 96C458 84.5333 459.967 73.8667 463.9 64C468.067 53.4667 474.5 43.85 483.2 35.15C491.867 26.4833 501.467 20.0667 512 15.9C521.867 11.9667 532.533 10 544 10C555.467 10 566.133 11.9667 576 15.9M576 97L576 95L522 95C522.1 83.9 524.067 73.5667 527.9 64L525.75 64C522.017 73.5667 520.1 83.9 520 95L512 95L512 97L520 97C520.1 108.1 522.017 118.433 525.75 128L527.9 128C524.067 118.433 522.1 108.1 522 97L576 97M760 736C760 725.167 759.55 714.5 758.65 704L756.65 704C757.55 714.5 758 725.167 758 736L758 768L760 768L760 736M694.7 576L692.7 576C693.533 586.167 693.967 596.5 694 607L600 607C599.933 596.267 598.9 585.933 596.9 576L594.85 576C596.883 585.933 597.933 596.267 598 607L576 607L576 609L598 609C597.933 619.733 596.883 630.067 594.85 640L596.9 640C598.9 630.067 599.933 619.733 600 609L694 609C693.967 619.5 693.533 629.833 692.7 640L694.7 640C695.533 629.833 695.967 619.5 696 609L704 609L704 607L696 607C695.967 596.5 695.533 586.167 694.7 576M691.4 512C696.067 517.5 700.267 523.217 704 529.15C713.1 543.583 719.383 559.2 722.85 576C724.95 586.233 726 596.9 726 608C726 619.1 724.95 629.767 722.85 640C719.383 656.767 713.1 672.383 704 686.85C700.267 692.75 696.067 698.467 691.4 704C688.467 707.433 685.367 710.783 682.1 714.05C669.233 726.917 655.2 736.967 640 744.2C620.6 753.4 599.267 758 576 758L576 760C599.233 760 620.567 755.467 640 746.4C655.733 739.033 670.233 728.717 683.5 715.45C687.2 711.717 690.683 707.9 693.95 704C697.583 699.6 700.933 695.1 704 690.5C714.233 675 721.2 658.167 724.9 640C726.967 629.767 728 619.1 728 608C728 596.9 726.967 586.233 724.9 576C721.2 557.8 714.233 540.95 704 525.45C700.967 520.85 697.633 516.367 694 512C690.733 508.067 687.233 504.233 683.5 500.5C670.233 487.233 655.733 476.933 640 469.6C620.567 460.533 599.233 456 576 456L576 458C599.267 458 620.6 462.6 640 471.8C655.2 479 669.233 489.033 682.1 501.9C685.4 505.2 688.5 508.567 691.4 512M704 417L704 415L609 415L609 384L607 384L607 415L576 415L576 417L671 417L671 448L673 448L673 417L704 417M758 448L757.95 472C757.983 474.667 758 477.333 758 480C758 490.833 757.55 501.5 756.65 512L758.65 512C759.55 501.5 760 490.833 760 480C760 477.333 759.983 474.667 759.95 472L760 448L758 448M776 136L776 248L824 248L824 136L776 136M778 246L778 138L822 138L822 246L778 246M723.2 364.8C716.933 358.533 710.533 352.55 704 346.85C692.767 337.017 681.167 328.067 669.2 320C659.7 313.6 649.967 307.75 640 302.45C619.633 291.583 598.3 283.017 576 276.75C555.467 270.983 534.133 267.183 512 265.35L512 267.35C534.133 269.183 555.467 273.017 576 278.85C598.3 285.15 619.633 293.767 640 304.7C648.7 309.367 657.233 314.467 665.6 320C678.833 328.767 691.633 338.6 704 349.5C710.033 354.8 715.967 360.367 721.8 366.2C727.633 372.033 733.217 377.967 738.55 384C749.417 396.367 759.233 409.167 768 422.4C773.533 430.767 778.65 439.3 783.35 448C794.283 468.367 802.9 489.7 809.2 512C815 532.533 818.833 553.867 820.7 576C821.567 586.5 822 597.167 822 608C822 618.833 821.567 629.5 820.7 640C818.833 662.133 815 683.467 809.2 704C802.9 726.3 794.283 747.633 783.35 768C778.65 776.7 773.533 785.233 768 793.6C759.233 806.833 749.417 819.633 738.55 832C733.217 838.033 727.633 843.967 721.8 849.8C715.967 855.633 710.033 861.2 704 866.5C691.633 877.4 678.833 887.233 665.6 896C657.233 901.533 648.7 906.633 640 911.3C619.633 922.233 598.3 930.85 576 937.15C555.467 942.983 534.133 946.817 512 948.65L512 950.65C534.133 948.817 555.467 945.017 576 939.25C598.3 932.983 619.633 924.417 640 913.55C649.967 908.25 659.7 902.4 669.2 896C681.167 887.933 692.767 878.983 704 869.15C710.533 863.45 716.933 857.467 723.2 851.2C729.467 844.933 735.467 838.533 741.2 832C751 820.767 759.933 809.15 768 797.15C774.4 787.683 780.267 777.967 785.6 768C796.467 747.633 805.017 726.3 811.25 704C817.017 683.467 820.833 662.133 822.7 640C823.567 629.5 824 618.833 824 608C824 597.167 823.567 586.5 822.7 576C820.833 553.867 817.017 532.533 811.25 512C805.017 489.7 796.467 468.367 785.6 448C780.267 438.033 774.4 428.317 768 418.85C759.933 406.85 751 395.233 741.2 384C735.467 377.467 729.467 371.067 723.2 364.8M704 310L704 312L768 312L768 310L704 310M778 256L776 256L776 328L768 328L768 330L776 330L776 374L768 374L768 376L776 376L776 384L778 384L778 376L822 376L822 384L824 384L824 376L832 376L832 374L824 374L824 330L832 330L832 328L824 328L824 256L822 256L822 328L778 328L778 256M778 374L778 330L822 330L822 374L778 374M768 266L768 264L704 264L704 266L768 266M760 159L648 159L648 225L760 225L760 159M650 161L758 161L758 223L650 223L650 161M737 8L671 8L671 120L737 120L737 8M735 10L735 118L673 118L673 10L735 10M824 56L824 8L768 8L768 10L822 10L822 54L768 54L768 56L824 56M832 74L832 72L776 72L776 120L832 120L832 118L778 118L778 74L832 74ZM74 72.8726L74 10L223 10L223 128" fill="#ffffff" fill-rule="nonzero" opacity="1" stroke="none"/>
</g>
</svg>
